<svg width="32" height="32" viewBox="0 0 32 32" fill="none" xmlns="http://www.w3.org/2000/svg">
<g clip-path="url(#clip0_82_35)">
<path d="M24 0H8V4H24V0Z" fill="#2A1F1A"/>
<path d="M8 4H4V8H8V4Z" fill="#2A1F1A"/>
<path d="M28 4H24V8H28V4Z" fill="#2A1F1A"/>
<path d="M12 4H8V8H12V4Z" fill="#c8f062"/>
<path d="M16 4H12V8H16V4Z" fill="#c8f062"/>
<path d="M20 4H16V8H20V4Z" fill="#2A1F1A"/>
<path d="M24 4H20V8H24V4Z" fill="#c8f062"/>
<path d="M4 8H0V12H4V8Z" fill="#2A1F1A"/>
<path d="M8 8H4V12H8V8Z" fill="#c8f062"/>
<path d="M12 8H8V12H12V8Z" fill="#c8f062"/>
<path d="M16 8H12V12H16V8Z" fill="#2A1F1A"/>
<path d="M20 8H16V12H20V8Z" fill="#2A1F1A"/>
<path d="M24 8H20V12H24V8Z" fill="#c8f062"/>
<path d="M28 8H24V12H28V8Z" fill="#c8f062"/>
<path d="M32 8H28V12H32V8Z" fill="#2A1F1A"/>
<path d="M4 12H0V16H4V12Z" fill="#2A1F1A"/>
<path d="M8 12H4V16H8V12Z" fill="#c8f062"/>
<path d="M12 12H8V16H12V12Z" fill="#2A1F1A"/>
<path d="M16 12H12V16H16V12Z" fill="#c8f062"/>
<path d="M20 12H16V16H20V12Z" fill="#c8f062"/>
<path d="M24 12H20V16H24V12Z" fill="#2A1F1A"/>
<path d="M28 12H24V16H28V12Z" fill="#c8f062"/>
<path d="M32 12H28V16H32V12Z" fill="#2A1F1A"/>
<path d="M4 16H0V20H4V16Z" fill="#2A1F1A"/>
<path d="M8 16H4V20H8V16Z" fill="#c8f062"/>
<path d="M12 16H8V20H12V16Z" fill="#c8f062"/>
<path d="M16 16H12V20H16V16Z" fill="#2A1F1A"/>
<path d="M20 16H16V20H20V16Z" fill="#2A1F1A"/>
<path d="M24 16H20V20H24V16Z" fill="#c8f062"/>
<path d="M28 16H24V20H28V16Z" fill="#c8f062"/>
<path d="M32 16H28V20H32V16Z" fill="#2A1F1A"/>
<path d="M4 20H0V24H4V20Z" fill="#2A1F1A"/>
<path d="M8 20H4V24H8V20Z" fill="#c8f062"/>
<path d="M12 20H8V24H12V20Z" fill="#2A1F1A"/>
<path d="M16 20H12V24H16V20Z" fill="#c8f062"/>
<path d="M20 20H16V24H20V20Z" fill="#c8f062"/>
<path d="M24 20H20V24H24V20Z" fill="#2A1F1A"/>
<path d="M28 20H24V24H28V20Z" fill="#c8f062"/>
<path d="M32 20H28V24H32V20Z" fill="#2A1F1A"/>
<path d="M8 24H4V28H8V24Z" fill="#2A1F1A"/>
<path d="M12 24H8V28H12V24Z" fill="#c8f062"/>
<path d="M16 24H12V28H16V24Z" fill="#c8f062"/>
<path d="M20 24H16V28H20V24Z" fill="#2A1F1A"/>
<path d="M24 24H20V28H24V24Z" fill="#c8f062"/>
<path d="M28 24H24V28H28V24Z" fill="#2A1F1A"/>
<path d="M24 28H8V32H24V28Z" fill="#2A1F1A"/>
</g>
<defs>
<clipPath id="clip0_82_35">
<rect width="32" height="32" fill="white"/>
</clipPath>
</defs>
</svg>
